<svg width="238" height="32" viewBox="0 0 238 32" fill="none" xmlns="http://www.w3.org/2000/svg">
<g clip-path="url(#clip0_1_23)">
<path d="M84.5822 17.2203C84.5822 13.8651 82.5571 12.5336 80.3834 12.5336C79.849 12.5307 79.322 12.6585 78.8482 12.9057C78.3744 13.1529 77.9681 13.512 77.6647 13.952V8.63714C77.6647 8.59452 77.6478 8.55365 77.6176 8.52351C77.5875 8.49337 77.5466 8.47644 77.504 8.47644H74.8868C74.8657 8.47644 74.8448 8.48059 74.8253 8.48867C74.8058 8.49674 74.7881 8.50858 74.7731 8.5235C74.7582 8.53843 74.7464 8.55614 74.7383 8.57564C74.7302 8.59514 74.7261 8.61604 74.7261 8.63714V23.4067C74.7261 23.4278 74.7302 23.4487 74.7383 23.4682C74.7464 23.4877 74.7582 23.5054 74.7731 23.5203C74.7881 23.5352 74.8058 23.5471 74.8253 23.5551C74.8448 23.5632 74.8657 23.5674 74.8868 23.5673H77.504C77.5466 23.5673 77.5875 23.5504 77.6176 23.5203C77.6478 23.4902 77.6647 23.4493 77.6647 23.4067V17.1482C77.6447 16.8692 77.6802 16.589 77.7692 16.3238C77.8583 16.0587 77.999 15.8138 78.1834 15.6035C78.3677 15.3931 78.592 15.2214 78.8431 15.0984C79.0943 14.9753 79.3674 14.9033 79.6466 14.8865C80.224 14.9164 80.766 15.1737 81.1542 15.6022C81.5424 16.0306 81.7451 16.5953 81.7181 17.1729V23.4066C81.7181 23.4278 81.7222 23.4486 81.7303 23.4681C81.7384 23.4876 81.7502 23.5054 81.7651 23.5203C81.78 23.5352 81.7978 23.547 81.8173 23.5551C81.8367 23.5632 81.8576 23.5673 81.8787 23.5673H84.4249C84.446 23.5674 84.4669 23.5633 84.4864 23.5552C84.5059 23.5472 84.5236 23.5354 84.5386 23.5205C84.5535 23.5056 84.5653 23.4878 84.5734 23.4684C84.5815 23.4489 84.5856 23.428 84.5856 23.4069C84.5843 22.4196 84.593 17.2123 84.5822 17.2203Z" fill="black"/>
<path d="M52.5399 23.6577C51.8165 23.7002 51.0918 23.5963 50.4094 23.3524C49.727 23.1084 49.1007 22.7293 48.5681 22.2379C48.0696 21.6994 47.6857 21.0653 47.4398 20.374C47.1939 19.6827 47.091 18.9486 47.1375 18.2163C47.0414 16.7189 47.5137 15.2403 48.4599 14.0757C48.9264 13.5808 49.4953 13.1935 50.1268 12.9409C50.7583 12.6882 51.4372 12.5763 52.1164 12.613C52.7528 12.5752 53.3902 12.67 53.988 12.8915C54.5859 13.1129 55.1312 13.4562 55.5894 13.8995C56.0167 14.3824 56.3443 14.9451 56.5533 15.5551C56.7624 16.1651 56.8488 16.8104 56.8076 17.4539V18.8643H50.0458C50.0389 19.1846 50.0999 19.5028 50.2248 19.7978C50.3497 20.0928 50.5357 20.3581 50.7705 20.5761C51.8685 21.7028 54.2833 21.2968 55.3194 20.5226C55.3498 20.5002 55.3872 20.4895 55.4248 20.4926C55.4624 20.4956 55.4976 20.5122 55.524 20.5392L56.7815 21.8124C56.7961 21.8272 56.8077 21.8446 56.8156 21.8638C56.8235 21.883 56.8275 21.9035 56.8274 21.9242C56.8274 21.945 56.8232 21.9655 56.8153 21.9846C56.8073 22.0038 56.7956 22.0211 56.7809 22.0358C56.2183 22.5759 55.5531 22.9978 54.8247 23.2763C54.0963 23.5549 53.3194 23.6846 52.5399 23.6577ZM52.1353 14.6809C51.8683 14.6668 51.6016 14.7121 51.3542 14.8134C51.1069 14.9148 50.885 15.0697 50.7047 15.267C50.3284 15.7404 50.1199 16.3252 50.1117 16.9298H54.14C54.1671 16.3259 53.9692 15.7334 53.5847 15.267C53.3997 15.0704 53.1744 14.9162 52.9242 14.815C52.674 14.7139 52.4049 14.6681 52.1353 14.6809Z" fill="black"/>
<path d="M60.7378 11.5597C61.6348 11.5597 62.362 10.8325 62.362 9.93541C62.362 9.03836 61.6348 8.31116 60.7378 8.31116C59.8407 8.31116 59.1135 9.03836 59.1135 9.93541C59.1135 10.8325 59.8407 11.5597 60.7378 11.5597Z" fill="black"/>
<path d="M62.0974 12.7234H59.3784C59.3177 12.7234 59.2686 12.7726 59.2686 12.8332V23.4664C59.2686 23.5271 59.3177 23.5763 59.3784 23.5763H62.0974C62.158 23.5763 62.2072 23.5271 62.2072 23.4664V12.8332C62.2072 12.7726 62.158 12.7234 62.0974 12.7234Z" fill="black"/>
<path d="M93.1015 12.8802V19.3908C93.087 19.9121 92.8763 20.4086 92.5115 20.7812C92.1466 21.1538 91.6546 21.3749 91.1337 21.4003C90.5563 21.3704 90.0143 21.1131 89.6261 20.6847C89.2379 20.2562 89.0352 19.6915 89.0623 19.114V12.8802C89.0623 12.8591 89.0581 12.8382 89.0501 12.8187C89.042 12.7992 89.0302 12.7815 89.0152 12.7665C89.0003 12.7516 88.9826 12.7398 88.9631 12.7317C88.9436 12.7236 88.9227 12.7195 88.9016 12.7195H86.3555C86.3344 12.7194 86.3135 12.7236 86.294 12.7316C86.2744 12.7396 86.2567 12.7515 86.2418 12.7664C86.2269 12.7813 86.215 12.799 86.207 12.8185C86.1989 12.838 86.1948 12.8589 86.1948 12.88C86.1961 13.8672 86.1873 19.0745 86.1981 19.0665C86.1981 22.4217 88.2232 23.7533 90.3969 23.7533C90.9274 23.7562 91.4506 23.6304 91.9217 23.3865C92.3928 23.1427 92.7977 22.7882 93.1015 22.3534V23.4118C93.1015 23.4544 93.1185 23.4953 93.1486 23.5254C93.1787 23.5555 93.2196 23.5725 93.2622 23.5725H95.8669C95.9095 23.5725 95.9504 23.5555 95.9805 23.5254C96.0106 23.4953 96.0276 23.4544 96.0276 23.4118V12.8802C96.0276 12.8591 96.0234 12.8382 96.0153 12.8187C96.0073 12.7992 95.9954 12.7815 95.9805 12.7666C95.9656 12.7516 95.9479 12.7398 95.9284 12.7317C95.9089 12.7237 95.888 12.7195 95.8669 12.7195H93.2622C93.2411 12.7195 93.2202 12.7237 93.2007 12.7317C93.1812 12.7398 93.1635 12.7516 93.1486 12.7666C93.1337 12.7815 93.1218 12.7992 93.1138 12.8187C93.1057 12.8382 93.1015 12.8591 93.1015 12.8802Z" fill="black"/>
<path d="M67.3508 15.6835C67.3508 14.402 69.7906 14.4185 71.4086 15.6772C71.4394 15.7018 71.4782 15.7142 71.5176 15.7121C71.5569 15.71 71.5942 15.6935 71.6222 15.6658L72.9592 14.3288C72.9756 14.3126 72.9882 14.293 72.9963 14.2715C73.0045 14.2499 73.0078 14.2269 73.0063 14.2039C73.0047 14.181 72.9982 14.1586 72.9872 14.1384C72.9762 14.1181 72.9609 14.1005 72.9425 14.0867C71.7079 13.1317 70.1913 12.6134 68.6304 12.6129C66.5004 12.6283 64.4489 13.5073 64.4578 15.8193C64.4693 18.8486 67.8328 18.4919 69.8109 19.6271C71.4073 20.6649 68.4708 22.3833 65.8511 20.3092C65.8203 20.2843 65.7813 20.2717 65.7418 20.2736C65.7022 20.2756 65.6647 20.2921 65.6365 20.32L64.0754 21.881C64.0604 21.8958 64.0485 21.9134 64.0404 21.9328C64.0322 21.9522 64.0279 21.973 64.0278 21.994C64.0277 22.0151 64.0318 22.0359 64.0398 22.0554C64.0477 22.0749 64.0595 22.0926 64.0743 22.1075C66.7001 24.6816 73.2189 24.0664 73.2189 20.1382C73.2189 16.5189 67.3508 17.3408 67.3508 15.6835Z" fill="black"/>
<path d="M46.4443 11.2769V8.63638C46.4443 8.61421 46.4399 8.59225 46.4314 8.57176C46.4229 8.55128 46.4105 8.53266 46.3948 8.51698C46.3791 8.5013 46.3605 8.48887 46.34 8.48038C46.3195 8.4719 46.2976 8.46753 46.2754 8.46753H36.4623C36.2831 8.46753 36.1113 8.53869 35.9847 8.66535C35.858 8.79201 35.7869 8.96379 35.7869 9.14292V23.4073C35.7869 23.4521 35.8047 23.4951 35.8363 23.5267C35.868 23.5584 35.9109 23.5762 35.9557 23.5762H38.5963C38.6411 23.5762 38.684 23.5584 38.7157 23.5267C38.7474 23.4951 38.7652 23.4521 38.7652 23.4073V17.5259H45.2173C45.2621 17.5259 45.305 17.5082 45.3367 17.4765C45.3684 17.4448 45.3862 17.4019 45.3862 17.3571V14.7165C45.3862 14.6717 45.3684 14.6288 45.3367 14.5971C45.305 14.5654 45.2621 14.5477 45.2173 14.5477H38.7652V11.4458H46.2754C46.2976 11.4458 46.3195 11.4415 46.34 11.433C46.3605 11.4245 46.3791 11.412 46.3948 11.3964C46.4105 11.3807 46.4229 11.3621 46.4314 11.3416C46.4399 11.3211 46.4443 11.2991 46.4443 11.2769Z" fill="black"/>
<path d="M16.9508 16.5619L17.0173 16.4982C17.0615 16.4556 17.1055 16.4127 17.1492 16.3695L17.2384 16.2813L17.5093 16.0137L17.8769 15.6505L18.1927 15.3384L18.4893 15.0453L18.7988 14.7395L19.0827 14.459L19.478 14.0684C19.5532 13.9947 19.6297 13.9223 19.7074 13.8512C19.8508 13.7201 19.9983 13.5938 20.1501 13.4721C20.2891 13.3605 20.4315 13.2532 20.5772 13.1499C20.7813 13.0053 20.9915 12.8692 21.2079 12.7416C21.4195 12.6169 21.6365 12.5008 21.8589 12.3933C22.0677 12.2924 22.2809 12.1996 22.4984 12.1147C22.6196 12.0675 22.7421 12.0229 22.8658 11.9808C22.9277 11.9598 22.9899 11.9394 23.0525 11.9197C22.5039 9.76089 21.499 7.74477 20.1055 6.00713C19.9723 5.84151 19.8036 5.70792 19.6119 5.61623C19.4201 5.52455 19.2103 5.47711 18.9977 5.47742L7.61416 5.47729C7.56922 5.47726 7.52542 5.49145 7.48903 5.51783C7.45265 5.54421 7.42555 5.58144 7.41161 5.62416C7.39768 5.66689 7.39763 5.71293 7.41146 5.75569C7.42529 5.79845 7.45231 5.83574 7.48863 5.8622C11.3746 8.71031 14.5944 12.3696 16.925 16.5864L16.9508 16.5619Z" fill="#00D6B9"/>
<path d="M26.107 18.5437L26.0994 18.5572L26.108 18.5443L26.1605 18.4456C26.1426 18.4782 26.1251 18.5112 26.107 18.5437Z" fill="#133C9A"/>
<path d="M26.3523 18.0848L26.3663 18.0584L26.3731 18.0449L26.3523 18.0848Z" fill="#133C9A"/>
<path d="M29.7006 12.4233C27.7171 11.4515 25.4452 11.244 23.3184 11.8404C23.2292 11.8655 23.1405 11.8919 23.0524 11.9197C22.9899 11.9394 22.9277 11.9598 22.8657 11.9809C22.742 12.0229 22.6196 12.0675 22.4984 12.1148C22.281 12.1995 22.0678 12.2924 21.8589 12.3933C21.6366 12.5007 21.4196 12.6168 21.2079 12.7417C20.9917 12.8691 20.7815 13.0052 20.5772 13.15C20.4315 13.2532 20.2892 13.3605 20.1501 13.4721C19.9984 13.5937 19.8508 13.7201 19.7074 13.8513C19.6297 13.9223 19.5532 13.9947 19.478 14.0685L19.0827 14.4591L18.7988 14.7396L18.4893 15.0454L18.1927 15.3385L17.8768 15.6506L17.5092 16.0138L17.2384 16.2814L17.1491 16.3696C17.1054 16.4127 17.0615 16.4556 17.0173 16.4982L16.9508 16.562C16.9175 16.5938 16.884 16.6254 16.8504 16.6569C16.8133 16.6916 16.776 16.7262 16.7385 16.7607C15.7597 17.66 14.6705 18.4313 13.4971 19.0559C13.5671 19.0889 13.6374 19.1217 13.7077 19.1543C13.7634 19.1801 13.8191 19.2057 13.8749 19.2312C13.9288 19.2557 13.9828 19.2802 14.0369 19.3046C14.0901 19.3285 14.1435 19.3523 14.1969 19.376C14.2552 19.4019 14.3137 19.4276 14.3722 19.4532C14.4397 19.4826 14.5072 19.5119 14.5749 19.5409C14.6397 19.5687 14.7046 19.5963 14.7696 19.6236C14.8537 19.6591 14.9381 19.6942 15.0226 19.7291C15.0905 19.757 15.1585 19.7847 15.2266 19.8123C15.3313 19.8546 15.4363 19.8964 15.5416 19.9377C15.6409 19.9767 15.7404 20.0152 15.8403 20.0533C15.9148 20.0818 15.9895 20.11 16.0644 20.1379C16.193 20.186 16.3221 20.2333 16.4516 20.2799C16.517 20.3034 16.5824 20.3268 16.648 20.3499C16.7395 20.3822 16.8313 20.4142 16.9233 20.4458C16.9989 20.4717 17.0746 20.4974 17.1505 20.5229C17.2613 20.5601 17.3725 20.5967 17.484 20.6329C17.601 20.6708 17.7184 20.7082 17.8361 20.745C17.9798 20.7899 18.1239 20.8339 18.2686 20.877C18.3651 20.9058 18.4619 20.9342 18.559 20.9622C18.7534 21.0184 18.9487 21.073 19.1449 21.126C19.2154 21.145 19.2858 21.1629 19.3562 21.1797C19.49 21.2116 19.6234 21.2394 19.7565 21.263C19.9097 21.2903 20.0622 21.3122 20.2141 21.3288C20.4212 21.3515 20.6268 21.3644 20.8308 21.3676C21.017 21.3705 21.2016 21.3655 21.3844 21.3526C21.5587 21.3403 21.7312 21.3209 21.9018 21.2944C22.1368 21.258 22.3695 21.208 22.5987 21.1445C22.7523 21.1019 22.9035 21.0534 23.0525 20.9991C23.1903 20.9488 23.3259 20.8936 23.4593 20.8335C23.613 20.7642 23.7635 20.6885 23.9109 20.6063C23.9833 20.5659 24.0549 20.524 24.1257 20.4806C24.1937 20.4388 24.2609 20.3957 24.3272 20.3512C24.432 20.2809 24.5347 20.2072 24.6352 20.13C24.7211 20.0642 24.8054 19.9958 24.888 19.925C25.0366 19.7977 25.1795 19.6626 25.3169 19.5197C25.3843 19.4494 25.4503 19.3774 25.5149 19.3034C25.5966 19.2099 25.6759 19.1134 25.7528 19.0141C25.814 18.9348 25.8737 18.8538 25.9317 18.771C26.0955 18.5368 26.2439 18.2923 26.3761 18.0389L26.5284 17.7351L27.9046 14.9917L27.9023 14.9973C28.3405 14.0373 28.9499 13.165 29.7006 12.4233Z" fill="#133C9A"/>
<path d="M12.4363 26.5826C15.2248 26.5836 17.9629 25.8387 20.3666 24.4252C22.7703 23.0117 24.7523 20.981 26.1069 18.5437C26.2007 18.3753 26.2915 18.2051 26.3792 18.0329C26.2462 18.2884 26.0967 18.5348 25.9316 18.7708C25.8736 18.8537 25.8139 18.9347 25.7526 19.0139C25.6758 19.1132 25.5965 19.2097 25.5147 19.3033C25.4502 19.3772 25.3842 19.4493 25.3167 19.5195C25.1795 19.6624 25.0365 19.7975 24.8878 19.9249C24.8052 19.9957 24.721 20.064 24.6351 20.1299C24.5345 20.207 24.4319 20.2807 24.3271 20.351C24.2607 20.3955 24.1935 20.4387 24.1255 20.4804C24.0548 20.5238 23.9832 20.5658 23.9107 20.6062C23.7634 20.6883 23.6129 20.764 23.4591 20.8333C23.3258 20.8935 23.1902 20.9487 23.0524 20.9989C22.9035 21.0533 22.7522 21.1017 22.5986 21.1443C22.3694 21.2078 22.1367 21.2579 21.9017 21.2943C21.7311 21.3207 21.5587 21.3401 21.3842 21.3524C21.2015 21.3653 21.017 21.3703 20.8307 21.3674C20.6268 21.3642 20.4212 21.3513 20.2139 21.3287C20.0621 21.3121 19.9095 21.2901 19.7563 21.2629C19.6233 21.2392 19.4898 21.2114 19.356 21.1795C19.2857 21.1628 19.2152 21.1449 19.1447 21.1258C18.9485 21.0728 18.7532 21.0182 18.5588 20.9621C18.4618 20.9341 18.365 20.9057 18.2684 20.8768C18.1237 20.8337 17.9796 20.7897 17.836 20.7448C17.7182 20.708 17.6009 20.6707 17.4838 20.6327C17.3723 20.5966 17.2612 20.5599 17.1503 20.5227C17.0744 20.4973 16.9987 20.4716 16.9231 20.4456C16.8311 20.414 16.7393 20.3821 16.6478 20.3498C16.5822 20.3266 16.5168 20.3033 16.4514 20.2798C16.3219 20.2332 16.1928 20.1858 16.0642 20.1378C15.9893 20.1098 15.9146 20.0816 15.8401 20.0532C15.7403 20.0151 15.6407 19.9765 15.5414 19.9376C15.4361 19.8962 15.3311 19.8544 15.2264 19.8121C15.1583 19.7846 15.0903 19.7569 15.0224 19.7289C14.9379 19.6941 14.8535 19.659 14.7694 19.6235C14.7043 19.5961 14.6395 19.5685 14.5747 19.5408C14.507 19.5117 14.4395 19.4825 14.372 19.453C14.3135 19.4275 14.255 19.4017 14.1967 19.3759C14.1433 19.3522 14.0899 19.3284 14.0367 19.3044C13.9826 19.2801 13.9286 19.2556 13.8747 19.231C13.8188 19.2055 13.7631 19.1799 13.7075 19.1542C13.6371 19.1216 13.5669 19.0888 13.4968 19.0557C13.4233 19.021 13.35 18.9861 13.2768 18.951C13.1983 18.9133 13.12 18.8753 13.0419 18.837C12.9753 18.8043 12.9089 18.7714 12.8425 18.7384C9.34942 16.9956 6.19515 14.6438 3.5279 11.7934C3.49868 11.7622 3.46077 11.7406 3.41908 11.7312C3.3774 11.7219 3.33387 11.7253 3.29415 11.741C3.25444 11.7568 3.22038 11.7841 3.19639 11.8194C3.17241 11.8548 3.15961 11.8965 3.15967 11.9393L3.16533 21.9846V22.7996C3.16467 23.0328 3.22163 23.2625 3.33115 23.4683C3.44067 23.6742 3.59936 23.8498 3.79311 23.9795C6.3538 25.6817 9.36125 26.5875 12.4361 26.5825" fill="#3370FF"/>
</g>
<defs>
<clipPath id="clip0_1_23">
<rect width="238" height="32" fill="white"/>
</clipPath>
</defs>
</svg>
